<?xml version="1.0" encoding="utf-8"?>
<!-- Generator: Adobe Illustrator 16.0.0, SVG Export Plug-In . SVG Version: 6.00 Build 0)  -->
<!DOCTYPE svg PUBLIC "-//W3C//DTD SVG 1.1//EN" "http://www.w3.org/Graphics/SVG/1.1/DTD/svg11.dtd">
<svg version="1.1"
	 id="svg2" xmlns:dc="http://purl.org/dc/elements/1.1/" xmlns:cc="http://creativecommons.org/ns#" xmlns:rdf="http://www.w3.org/1999/02/22-rdf-syntax-ns#" xmlns:svg="http://www.w3.org/2000/svg" xmlns:sodipodi="http://sodipodi.sourceforge.net/DTD/sodipodi-0.dtd" xmlns:inkscape="http://www.inkscape.org/namespaces/inkscape" sodipodi:docname="LogotipoUN.svg" inkscape:version="0.91 r13725"
	 xmlns="http://www.w3.org/2000/svg" xmlns:xlink="http://www.w3.org/1999/xlink" x="0px" y="0px" width="245px" height="245px"
	 viewBox="0 0 245 245" enable-background="new 0 0 245 245" xml:space="preserve">
<sodipodi:namedview  units="px" showgrid="false" inkscape:cy="61.828288" inkscape:cx="88.726681" inkscape:zoom="1.3936809" borderopacity="1.0" bordercolor="#666666" pagecolor="#ffffff" id="base" inkscape:window-maximized="1" inkscape:window-y="27" inkscape:current-layer="layer1" inkscape:document-units="px" inkscape:pageopacity="0.0" inkscape:window-x="0" inkscape:window-height="704" inkscape:window-width="1366" inkscape:pageshadow="2">
	</sodipodi:namedview>
<g id="layer1" transform="translate(0,-807.36214)" inkscape:label="Capa 1" inkscape:groupmode="layer">
	<circle id="ellipse4193" opacity="0.582" fill="#FF0000" enable-background="new    " cx="270.329" cy="468.577" r="0"/>
	<circle id="ellipse4195" opacity="0.582" fill="#FF0000" enable-background="new    " cx="270.329" cy="468.577" r="0"/>
	<g id="g4233" transform="matrix(1.0123306,0,0,1.0123306,-178.21671,453.25905)">
		<circle id="path4218" cx="297.593" cy="469.463" r="70.138"/>
		<path id="rect4147" inkscape:connector-curvature="0" fill="#FFFFFF" d="M247.086,445.459c0.011,7.745-0.016,15.505,0.002,23.242
			c0,12.835,7.524,23.242,23.24,23.242c7.651-0.013,15.533,0,23.242,0v-23.242v-23.242h-7.705v24.109
			c0,8.144-6.956,14.746-15.537,14.746c-8.58-0.001-15.535-6.602-15.535-14.746v-24.109H247.086L247.086,445.459z"/>
		<path id="path4214" inkscape:connector-curvature="0" fill="#FFFFFF" d="M347.853,491.943c-0.011-7.744,0.017-15.505-0.002-23.242
			c0-12.835-7.524-23.242-23.24-23.242c-7.651,0.013-15.532,0-23.242,0v23.242v23.242h7.705v-24.109
			c-0.001-8.144,6.956-14.746,15.537-14.746c8.581,0,15.536,6.603,15.536,14.746v24.109H347.853L347.853,491.943z"/>
		<g id="text4224">
			<path id="path4173" inkscape:connector-curvature="0" d="M213.025,500.968c2.834-0.884,3.651-3.108,2.812-5.802
				c-0.976-3.133-3.22-4.361-6.273-3.41l-7.703,2.4l0.541,1.736l8.143-2.537c1.876-0.585,3.09,0.22,3.593,1.837
				c0.578,1.856,0.112,3.38-2.343,4.145l-7.584,2.362l0.572,1.837L213.025,500.968L213.025,500.968z"/>
			<path id="path4175" inkscape:connector-curvature="0" d="M211.651,472.384l-0.124-1.751l-12.761,0.902l0.118,1.668l9.779-0.692
				l-9.327,7.093l0.134,1.897l12.761-0.902l-0.118-1.669l-9.905,0.7L211.651,472.384L211.651,472.384z"/>
			<path id="path4177" inkscape:connector-curvature="0" d="M199.618,457.269l-0.217,1.911l12.711,1.444l0.217-1.911
				L199.618,457.269z"/>
			<path id="path4179" inkscape:connector-curvature="0" d="M215.451,444.147l-10.925-8.175l-0.539,1.825l9.213,6.666l-11.339,0.531
				l-0.58,1.965l13.566-0.766L215.451,444.147L215.451,444.147z"/>
			<path id="path4181" inkscape:connector-curvature="0" d="M220.157,432.019l3.53-6.622l-1.303-0.932l-2.65,5.149l-3.91-2.085
				l2.239-4.066l-1.174-0.863l-2.281,4.279l-3.56-1.897l2.542-4.591l-1.248-0.902l-3.471,6.512L220.157,432.019L220.157,432.019z"/>
			<path id="path4183" inkscape:connector-curvature="0" d="M225.971,410.801c-0.372,0.452-0.733,0.859-1.111,1.252l-3.616-2.975
				c0.276-0.368,0.592-0.785,0.844-1.092c1.076-1.308,2.453-1.501,3.712-0.465C227.011,408.517,226.768,409.832,225.971,410.801z
				 M226.715,412.036c0.186-0.226,0.356-0.465,0.523-0.734l5.899,1.253l1.394-1.695l-6.651-1.194
				c0.323-1.413,0.027-2.928-1.265-3.991c-1.614-1.328-3.585-0.973-5.311,1.126l-2.364,2.874l9.88,8.127l1.222-1.485l-4.101-3.373
				C226.221,412.604,226.542,412.246,226.715,412.036L226.715,412.036z"/>
			<path id="path4185" inkscape:connector-curvature="0" d="M239.04,398.865c2.253-0.714,3.001-0.462,3.717,0.41
				c0.769,0.937,0.418,2.091-0.632,2.953c-0.905,0.743-1.974,1.187-3.138,1.547l0.794,1.593c0.735-0.224,2.009-0.946,2.752-1.556
				c2.391-1.963,2.816-4.313,1.304-6.155c-0.968-1.179-2.151-1.534-4.952-0.696c-1.974,0.593-2.82,0.584-3.549-0.305
				c-0.69-0.84-0.551-1.792,0.451-2.614c0.905-0.743,1.869-1.182,2.945-1.552l-0.692-1.568c-0.631,0.22-1.646,0.729-2.777,1.657
				c-2.101,1.724-2.393,3.938-1.12,5.489C235.203,399.363,236.633,399.622,239.04,398.865L239.04,398.865z"/>
			<path id="path4187" inkscape:connector-curvature="0" d="M249.113,383.446l-1.665,0.962l6.399,11.078l1.665-0.962
				L249.113,383.446z"/>
			<path id="path4189" inkscape:connector-curvature="0" d="M260.177,377.962l4.205,11.861c0.751-0.133,2.206-0.471,3.369-0.883
				c3.881-1.376,5.832-4.818,4.38-8.916c-1.25-3.527-4.289-4.778-7.796-3.535L260.177,377.962L260.177,377.962z M262.458,378.639
				l1.754-0.622c2.601-0.922,5.076-0.069,6.159,2.984c1.264,3.566-0.312,5.566-2.419,6.313c-0.69,0.245-1.558,0.486-2.203,0.604
				L262.458,378.639z"/>
			<path id="path4191" inkscape:connector-curvature="0" d="M288.229,378.595l-3.756,0.458l1.178-5.703L288.229,378.595z
				 M290.729,383.723l1.992-0.243l-6.094-12.144l-2.137,0.261l-3.036,13.258l1.867-0.228l0.847-4.104l4.71-0.575L290.729,383.723z"
				/>
			<path id="path4193" inkscape:connector-curvature="0" d="M302.3,370.737l-1.202,12.526c0.737,0.197,2.198,0.505,3.427,0.623
				c4.098,0.393,7.322-1.901,7.737-6.229c0.357-3.725-1.868-6.143-5.572-6.498L302.3,370.737z M304.079,372.315l1.852,0.177
				c2.746,0.264,4.629,2.082,4.321,5.308c-0.361,3.766-2.634,4.913-4.861,4.699c-0.728-0.07-1.617-0.218-2.253-0.384
				L304.079,372.315L304.079,372.315z"/>
			<path id="path4195" inkscape:connector-curvature="0" d="M338.055,393.562l1.58,0.766l5.581-11.511l-1.504-0.73l-4.277,8.822
				l-1.497-11.621l-1.712-0.83l-5.581,11.511l1.504,0.729l4.332-8.934L338.055,393.562z"/>
			<path id="path4197" inkscape:connector-curvature="0" d="M355.794,399.063l-2.962-2.355l4.89-3.162L355.794,399.063
				L355.794,399.063z M353.894,404.442l1.57,1.249l4.378-12.863l-1.684-1.34l-11.578,7.139l1.472,1.171l3.519-2.277l3.715,2.953
				L353.894,404.442L353.894,404.442z"/>
			<path id="path4199" inkscape:connector-curvature="0" d="M368.412,417.037c-0.869-0.393-1.855-1.122-2.549-1.959
				c-1.482-1.786-1.821-4.356,1.171-6.839c2.911-2.416,5.088-1.56,6.222-0.192c0.801,0.965,1.484,2.246,1.704,3.068l1.543-0.628
				c-0.199-0.731-0.965-2.079-1.738-3.012c-2.51-3.025-6.251-3.017-9.324-0.467c-3.234,2.683-3.31,6.061-1.041,8.795
				c0.974,1.174,2.287,2.068,3.075,2.364L368.412,417.037L368.412,417.037z"/>
			<path id="path4201" inkscape:connector-curvature="0" d="M383.754,421.238l-0.957-1.668l-11.098,6.366l0.957,1.668
				L383.754,421.238L383.754,421.238z"/>
			<path id="path4203" inkscape:connector-curvature="0" d="M387.055,444.822c3.832-1.328,5.27-4.327,4.223-7.348
				c-1.225-3.535-4.518-5.248-8.626-3.824c-3.852,1.335-5.278,4.307-4.231,7.329C379.648,444.513,382.947,446.246,387.055,444.822z
				 M385.865,443.177c-3.218,1.116-5.163-0.091-5.813-1.967c-0.815-2.35-0.042-4.587,3.789-5.915
				c3.181-1.102,5.158,0.071,5.808,1.947C390.457,439.572,389.677,441.856,385.865,443.177z"/>
			<path id="path4205" inkscape:connector-curvature="0" d="M383.425,464.111l0.175,1.747l12.73-1.277l-0.167-1.664l-9.755,0.979
				l9.114-7.364l-0.19-1.893l-12.729,1.277l0.167,1.664l9.88-0.991L383.425,464.111L383.425,464.111z"/>
			<path id="path4207" inkscape:connector-curvature="0" d="M388.062,482.092l0.445-3.757l5.261,2.497L388.062,482.092z
				 M382.488,483.305l-0.236,1.993l13.243-3.043l0.253-2.138l-12.161-6.092l-0.222,1.869l3.787,1.795l-0.558,4.712L382.488,483.305
				L382.488,483.305z"/>
			<path id="path4209" inkscape:connector-curvature="0" d="M380.192,493.388l-2.162,6.661l1.447,0.69l1.553-5.057l10.737,3.483
				l0.593-1.829L380.192,493.388L380.192,493.388z"/>
		</g>
		<g id="text4163">
			<path id="path4212" inkscape:connector-curvature="0" d="M228.9,522.658l-9.502,8.251c0.399,0.651,1.245,1.88,2.054,2.812
				c2.7,3.11,6.617,3.668,9.9,0.816c2.825-2.453,2.879-5.739,0.439-8.549L228.9,522.658L228.9,522.658z M229.103,525.029l1.22,1.405
				c1.809,2.084,1.921,4.699-0.525,6.823c-2.857,2.481-5.295,1.746-6.761,0.057c-0.48-0.552-1.022-1.271-1.368-1.83L229.103,525.029
				L229.103,525.029z"/>
			<path id="path4215" inkscape:connector-curvature="0" d="M232.837,545.127l5.859,4.689l1.156-1.109l-4.573-3.553l2.769-3.46
				l3.584,2.949l1.065-0.996l-3.786-3.031l2.521-3.149l4.044,3.344l1.117-1.061l-5.761-4.611L232.837,545.127L232.837,545.127z"/>
			<path id="path4217" inkscape:connector-curvature="0" d="M264.529,561.339c-0.952,0.053-2.164-0.139-3.166-0.559
				c-2.139-0.899-3.628-3.021-2.122-6.606c1.465-3.488,3.791-3.735,5.429-3.046c1.157,0.486,2.354,1.306,2.929,1.933l1.078-1.27
				c-0.515-0.557-1.816-1.398-2.934-1.868c-3.623-1.521-6.937,0.215-8.484,3.895c-1.628,3.873-0.135,6.904,3.141,8.281
				c1.407,0.591,2.984,0.778,3.82,0.675L264.529,561.339z"/>
			<path id="path4219" inkscape:connector-curvature="0" d="M284.106,561.58c0.842-3.967-0.983-6.747-4.112-7.411
				c-3.66-0.778-6.827,1.158-7.73,5.412c-0.846,3.988,0.963,6.743,4.092,7.407C280.016,567.765,283.203,565.835,284.106,561.58z
				 M282.083,561.75c-0.707,3.333-2.744,4.375-4.687,3.963c-2.433-0.516-3.95-2.333-3.108-6.301c0.698-3.291,2.724-4.38,4.667-3.967
				C281.367,555.956,282.92,557.803,282.083,561.75L282.083,561.75z"/>
			<path id="path4221" inkscape:connector-curvature="0" d="M291.732,568.868l6.999,0.218l0.259-1.581l-5.288-0.082l0.352-11.282
				l-1.922-0.061L291.732,568.868L291.732,568.868z"/>
			<path id="path4223" inkscape:connector-curvature="0" d="M317.022,560.512c-0.585-4.013-3.259-5.991-6.424-5.53
				c-3.703,0.539-6.004,3.452-5.378,7.754c0.587,4.033,3.238,5.993,6.403,5.531C315.326,567.729,317.648,564.814,317.022,560.512
				L317.022,560.512z M315.183,561.37c0.491,3.372-1.06,5.055-3.024,5.341c-2.462,0.358-4.515-0.822-5.098-4.835
				c-0.485-3.331,1.039-5.052,3.005-5.338C312.506,556.183,314.601,557.378,315.183,561.37L315.183,561.37z"/>
			<path id="path4225" inkscape:connector-curvature="0" d="M332.079,562.866l1.486-0.562l-0.243-11.086l4.622,9.427l1.779-0.673
				l-5.841-11.468l-2.111,0.8l0.232,10.821l-7.113-8.214l-2.072,0.784L326,565.169l1.68-0.637l-2.788-10.076L332.079,562.866
				L332.079,562.866z"/>
			<path id="path4227" inkscape:connector-curvature="0" d="M346.852,547.666c-0.369,0.235-0.874,0.532-1.309,0.783l-2.312-3.633
				l1.058-0.673c1.516-0.965,2.775-0.7,3.538,0.499C348.5,545.7,348.193,546.813,346.852,547.666L346.852,547.666z M350.391,552.252
				c-0.53,0.337-1.193,0.735-1.751,1.065l-2.39-3.756c0.448-0.309,0.965-0.664,1.335-0.899c1.711-1.089,3.164-0.948,3.982,0.34
				C352.365,550.253,351.785,551.366,350.391,552.252L350.391,552.252z M347.77,555.531l2.875-1.83
				c2.769-1.761,3.612-4.057,2.4-5.962c-1.011-1.588-2.716-1.542-3.973-1.065c0.586-1.066,0.775-2.327-0.001-3.543
				c-0.965-1.516-2.897-1.749-4.978-0.424l-3.191,2.032L347.77,555.531L347.77,555.531z"/>
			<path id="path4229" inkscape:connector-curvature="0" d="M355.105,534.409l-1.453,1.26l8.38,9.666l1.454-1.26L355.105,534.409
				L355.105,534.409z"/>
			<path id="path4231" inkscape:connector-curvature="0" d="M370.338,529.251l-2.46,2.876l-2.985-5.001L370.338,529.251
				L370.338,529.251z M375.645,531.342l1.304-1.524l-12.698-4.837l-1.4,1.637l6.72,11.826l1.223-1.43l-2.149-3.598l3.085-3.607
				L375.645,531.342L375.645,531.342z"/>
		</g>
	</g>
</g>
</svg>
